<svg width="188" height="128" viewBox="0 0 188 128" fill="none" xmlns="http://www.w3.org/2000/svg">
<rect x="13.556" y="28.6804" width="98.9821" height="98.9821" transform="rotate(-15 13.556 28.6804)" stroke="#00A89E" stroke-width="5"/>
<rect width="148" height="27" transform="translate(0 55)" fill="#312528"/>
<path d="M11.51 76.322C9.992 76.322 8.658 76.0383 7.508 75.471C6.37333 74.9037 5.484 74.0297 4.84 72.849C4.21133 71.6683 3.897 70.1657 3.897 68.341C3.897 65.7037 4.564 63.7103 5.898 62.361C7.24733 61.0117 9.118 60.337 11.51 60.337C13.028 60.337 14.3543 60.6207 15.489 61.188C16.639 61.7553 17.5283 62.6293 18.157 63.81C18.801 64.9753 19.123 66.478 19.123 68.318C19.123 70.9553 18.456 72.9487 17.122 74.298C15.788 75.6473 13.9173 76.322 11.51 76.322ZM11.51 72.964C12.2 72.964 12.7903 72.8183 13.281 72.527C13.7717 72.2357 14.1473 71.7527 14.408 71.078C14.684 70.388 14.822 69.4603 14.822 68.295C14.822 67.145 14.684 66.2327 14.408 65.558C14.1473 64.8833 13.7717 64.408 13.281 64.132C12.7903 63.8407 12.2 63.695 11.51 63.695C10.82 63.695 10.2297 63.8483 9.739 64.155C9.24833 64.4463 8.865 64.9293 8.589 65.604C8.32833 66.2787 8.198 67.1987 8.198 68.364C8.198 69.514 8.32833 70.4263 8.589 71.101C8.865 71.7603 9.24833 72.2357 9.739 72.527C10.2297 72.8183 10.82 72.964 11.51 72.964ZM28.1674 76.529C25.7294 76.529 23.9047 76.0383 22.6934 75.057C21.4974 74.0757 20.8994 72.5193 20.8994 70.388V60.659H25.2464V70.158C25.2464 71.2467 25.4534 72.0517 25.8674 72.573C26.2967 73.0943 26.9944 73.355 27.9604 73.355C28.8191 73.355 29.4861 73.0943 29.9614 72.573C30.4367 72.0517 30.6744 71.2467 30.6744 70.158V60.659H34.6304V70.388C34.6304 71.814 34.3544 72.9793 33.8024 73.884C33.2504 74.7887 32.4837 75.4557 31.5024 75.885C30.5364 76.3143 29.4247 76.529 28.1674 76.529ZM40.1596 76V63.833H36.0656V60.659H48.4626V63.833H44.2996V76H40.1596ZM55.1996 76.322C54.4329 76.322 53.7199 76.2913 53.0606 76.23C52.4012 76.1687 51.7879 76.069 51.2206 75.931C50.6686 75.7777 50.1396 75.5783 49.6336 75.333V71.423C50.4002 72.021 51.2359 72.4657 52.1406 72.757C53.0452 73.033 53.8656 73.171 54.6016 73.171C55.1842 73.171 55.6519 73.0637 56.0046 72.849C56.3572 72.6343 56.5336 72.2663 56.5336 71.745C56.5336 71.3923 56.3572 71.1087 56.0046 70.894C55.6672 70.664 55.2072 70.4647 54.6246 70.296C54.0572 70.112 53.4132 69.8973 52.6926 69.652C52.2632 69.4987 51.8416 69.3147 51.4276 69.1C51.0289 68.8853 50.6686 68.617 50.3466 68.295C50.0246 67.973 49.7639 67.5743 49.5646 67.099C49.3652 66.6237 49.2656 66.0487 49.2656 65.374C49.2656 64.6993 49.3882 64.0553 49.6336 63.442C49.8942 62.8287 50.2776 62.2843 50.7836 61.809C51.2896 61.3337 51.9336 60.9657 52.7156 60.705C53.4976 60.429 54.4099 60.291 55.4526 60.291C56.0812 60.291 56.6486 60.3293 57.1546 60.406C57.6606 60.4673 58.1359 60.5747 58.5806 60.728C59.0406 60.8813 59.5006 61.073 59.9606 61.303V65.259C59.6232 64.9677 59.2246 64.6917 58.7646 64.431C58.3199 64.1703 57.8522 63.948 57.3616 63.764C56.8709 63.58 56.3802 63.4727 55.8896 63.442C55.4756 63.4267 55.0846 63.465 54.7166 63.557C54.3639 63.6337 54.0726 63.7793 53.8426 63.994C53.6279 64.2087 53.5206 64.5 53.5206 64.868C53.5206 65.2513 53.6432 65.558 53.8886 65.788C54.1492 66.0027 54.5019 66.1867 54.9466 66.34C55.4066 66.478 55.9126 66.6237 56.4646 66.777C57.1086 66.961 57.6912 67.168 58.2126 67.398C58.7492 67.628 59.2092 67.9117 59.5926 68.249C59.9759 68.5863 60.2749 69.0003 60.4896 69.491C60.7042 69.9663 60.8116 70.549 60.8116 71.239C60.8116 72.2203 60.5816 73.0943 60.1216 73.861C59.6616 74.6277 59.0099 75.2333 58.1666 75.678C57.3386 76.1073 56.3496 76.322 55.1996 76.322ZM62.5608 76V60.659H66.7468V76H62.5608ZM69.1931 76V60.659H75.6331C78.2858 60.659 80.2254 61.3107 81.4521 62.614C82.6941 63.9173 83.3151 65.8263 83.3151 68.341C83.3151 70.8403 82.6941 72.7417 81.4521 74.045C80.2254 75.3483 78.2858 76 75.6331 76H69.1931ZM73.3561 72.826H75.1271C76.3998 72.826 77.3658 72.4733 78.0251 71.768C78.6998 71.0473 79.0371 69.905 79.0371 68.341C79.0371 66.7617 78.6998 65.6193 78.0251 64.914C77.3658 64.1933 76.3998 63.833 75.1271 63.833H73.3561V72.826ZM85.0793 76V60.659H95.7743V63.833H89.2653V66.731H94.8773V69.905H89.2423V72.826H95.7743V76H85.0793ZM103.667 76V60.659H110.475C111.548 60.659 112.499 60.797 113.327 61.073C114.17 61.3337 114.837 61.7783 115.328 62.407C115.834 63.0203 116.087 63.8637 116.087 64.937C116.087 65.627 115.903 66.2097 115.535 66.685C115.167 67.145 114.722 67.513 114.201 67.789C113.695 68.0497 113.22 68.2567 112.775 68.41L112.292 67.467C113.227 67.4977 114.032 67.674 114.707 67.996C115.382 68.3027 115.903 68.7397 116.271 69.307C116.654 69.859 116.846 70.526 116.846 71.308C116.846 72.3813 116.578 73.2707 116.041 73.976C115.52 74.666 114.822 75.1797 113.948 75.517C113.089 75.839 112.146 76 111.119 76H103.667ZM107.853 72.826H110.774C111.096 72.826 111.387 72.7723 111.648 72.665C111.924 72.5577 112.139 72.3813 112.292 72.136C112.461 71.8753 112.545 71.5457 112.545 71.147C112.545 70.8557 112.491 70.6103 112.384 70.411C112.292 70.1963 112.162 70.0277 111.993 69.905C111.84 69.7823 111.648 69.6903 111.418 69.629C111.188 69.5677 110.95 69.537 110.705 69.537H107.853V72.826ZM107.83 66.57H110.636C110.851 66.57 111.042 66.524 111.211 66.432C111.395 66.3247 111.548 66.179 111.671 65.995C111.794 65.7957 111.855 65.558 111.855 65.282C111.855 64.7453 111.709 64.3697 111.418 64.155C111.127 63.9403 110.789 63.833 110.406 63.833H107.83V66.57ZM125.556 76.322C124.038 76.322 122.704 76.0383 121.554 75.471C120.419 74.9037 119.53 74.0297 118.886 72.849C118.257 71.6683 117.943 70.1657 117.943 68.341C117.943 65.7037 118.61 63.7103 119.944 62.361C121.293 61.0117 123.164 60.337 125.556 60.337C127.074 60.337 128.4 60.6207 129.535 61.188C130.685 61.7553 131.574 62.6293 132.203 63.81C132.847 64.9753 133.169 66.478 133.169 68.318C133.169 70.9553 132.502 72.9487 131.168 74.298C129.834 75.6473 127.963 76.322 125.556 76.322ZM125.556 72.964C126.246 72.964 126.836 72.8183 127.327 72.527C127.818 72.2357 128.193 71.7527 128.454 71.078C128.73 70.388 128.868 69.4603 128.868 68.295C128.868 67.145 128.73 66.2327 128.454 65.558C128.193 64.8833 127.818 64.408 127.327 64.132C126.836 63.8407 126.246 63.695 125.556 63.695C124.866 63.695 124.276 63.8483 123.785 64.155C123.294 64.4463 122.911 64.9293 122.635 65.604C122.374 66.2787 122.244 67.1987 122.244 68.364C122.244 69.514 122.374 70.4263 122.635 71.101C122.911 71.7603 123.294 72.2357 123.785 72.527C124.276 72.8183 124.866 72.964 125.556 72.964ZM148.037 76H142.839L132.466 60.659H137.664L148.037 76ZM140.217 66.179L143.322 60.659H147.853L142.356 69.238L140.217 66.179ZM140.815 69.698L137.181 76H132.696L138.745 66.8L140.815 69.698Z" fill="#00A89E"/>
<path d="M131.02 55V49.71H129.24V48.33H134.63V49.71H132.82V55H131.02ZM135.249 55V48.33H137.059V50.96H139.269V48.33H141.079V55H139.269V52.43H137.059V55H135.249ZM142.137 55V48.33H146.787V49.71H143.957V50.97H146.397V52.35H143.947V53.62H146.787V55H142.137Z" fill="#00A89E"/>
</svg>
